<svg width="44" height="43" viewBox="0 0 44 43" fill="none" xmlns="http://www.w3.org/2000/svg">
<g id="Group">
<g id="Group_2" filter="url(#filter0_d_213_363)">
<path id="Vector" d="M36.6534 21.3499C36.6534 29.2751 30.0529 35.6997 21.9108 35.6997C13.7686 35.6997 7.16806 29.2751 7.16806 21.3499C7.16806 13.4246 13.7686 7 21.9108 7C30.0529 7 36.6534 13.4246 36.6534 21.3499Z" fill="white"/>
</g>
<path id="Vector_2" d="M13.2751 16.1022V20.4676C13.2751 21.0318 12.8051 21.4893 12.2254 21.4893C11.6457 21.4893 11.1758 21.0318 11.1758 20.4676V16.1022C11.1758 15.538 11.6457 15.0806 12.2254 15.0806C12.8051 15.0806 13.2751 15.538 13.2751 16.1022Z" fill="#E01C4E"/>
<path id="Vector_3" d="M13.2751 23.904V26.8762C13.2751 27.4404 12.8051 27.8978 12.2254 27.8978C11.6457 27.8978 11.1758 27.4404 11.1758 26.8762V23.904C11.1758 23.3398 11.6457 22.8823 12.2254 22.8823C12.8051 22.8823 13.2751 23.3398 13.2751 23.904Z" fill="#E01C4E"/>
<path id="Vector_4" d="M17.1874 13.1301V15.7307C17.1874 16.2949 16.7174 16.7523 16.1377 16.7523C15.558 16.7523 15.0881 16.2949 15.0881 15.7307V13.1301C15.0881 12.5658 15.558 12.1084 16.1377 12.1084C16.7174 12.1084 17.1874 12.5658 17.1874 13.1301Z" fill="#F47725"/>
<path id="Vector_5" d="M21.0997 12.0618V24.5076C21.0997 25.0974 20.6083 25.5757 20.0023 25.5757C19.3963 25.5757 18.905 25.0974 18.905 24.5076V12.0618C18.905 11.4719 19.3963 10.9937 20.0023 10.9937C20.6083 10.9937 21.0997 11.4719 21.0997 12.0618Z" fill="#FFC313"/>
<path id="Vector_6" d="M25.012 11.969V18.4706C25.012 19.0605 24.5206 19.5387 23.9146 19.5387C23.3086 19.5387 22.8173 19.0605 22.8173 18.4706V11.969C22.8173 11.3791 23.3086 10.9009 23.9146 10.9009C24.5206 10.9009 25.012 11.3791 25.012 11.969Z" fill="#4DC2D4"/>
<path id="Vector_7" d="M28.8289 13.1765V24.0433C28.8289 24.6332 28.3375 25.1114 27.7315 25.1114C27.1255 25.1114 26.6342 24.6332 26.6342 24.0433V13.1765C26.6342 12.5866 27.1255 12.1084 27.7315 12.1084C28.3375 12.1084 28.8289 12.5866 28.8289 13.1765Z" fill="#23B4A7"/>
<path id="Vector_8" d="M28.8289 27.6658V29.7091C28.8289 30.299 28.3375 30.7772 27.7315 30.7772C27.1255 30.7772 26.6342 30.299 26.6342 29.7091V27.6658C26.6342 27.0759 27.1255 26.5977 27.7315 26.5977C28.3375 26.5977 28.8289 27.0759 28.8289 27.6658Z" fill="#23B4A7"/>
<path id="Vector_9" d="M32.7411 16.1487V18.5636C32.7411 19.1535 32.2498 19.6317 31.6438 19.6317C31.0378 19.6317 30.5464 19.1535 30.5464 18.5636V16.1487C30.5464 15.5588 31.0378 15.0806 31.6438 15.0806C32.2498 15.0806 32.7411 15.5588 32.7411 16.1487Z" fill="#A5C73C"/>
<path id="Vector_10" d="M32.7411 22.1858V26.8297C32.7411 27.4196 32.2498 27.8978 31.6438 27.8978C31.0378 27.8978 30.5464 27.4196 30.5464 26.8297V22.1858C30.5464 21.5959 31.0378 21.1177 31.6438 21.1177C32.2498 21.1177 32.7411 21.5959 32.7411 22.1858Z" fill="#A5C73C"/>
<path id="Vector_11" d="M25.012 21.9997V30.8232C25.012 31.4131 24.5206 31.8914 23.9146 31.8914C23.3086 31.8914 22.8173 31.4131 22.8173 30.8232V21.9997C22.8173 21.4099 23.3086 20.9316 23.9146 20.9316C24.5206 20.9316 25.012 21.4099 25.012 21.9997Z" fill="#4DC2D4"/>
<path id="Vector_12" d="M21.0997 28.0369V30.8232C21.0997 31.4131 20.6083 31.8914 20.0023 31.8914C19.3963 31.8914 18.905 31.4131 18.905 30.8232V28.0369C18.905 27.447 19.3963 26.9688 20.0023 26.9688C20.6083 26.9688 21.0997 27.447 21.0997 28.0369Z" fill="#FFC313"/>
<path id="Vector_13" d="M17.1874 18.9816V29.7557C17.1874 30.3199 16.7174 30.7773 16.1377 30.7773C15.558 30.7773 15.0881 30.3199 15.0881 29.7557V18.9816C15.0881 18.4174 15.558 17.96 16.1377 17.96C16.7174 17.96 17.1874 18.4174 17.1874 18.9816Z" fill="#F47725"/>
</g>
<defs>
<filter id="filter0_d_213_363" x="0.16806" y="0" width="43.4854" height="42.6997" filterUnits="userSpaceOnUse" color-interpolation-filters="sRGB">
<feFlood flood-opacity="0" result="BackgroundImageFix"/>
<feColorMatrix in="SourceAlpha" type="matrix" values="0 0 0 0 0 0 0 0 0 0 0 0 0 0 0 0 0 0 127 0" result="hardAlpha"/>
<feOffset/>
<feGaussianBlur stdDeviation="3.5"/>
<feComposite in2="hardAlpha" operator="out"/>
<feColorMatrix type="matrix" values="0 0 0 0 0 0 0 0 0 0 0 0 0 0 0 0 0 0 0.25 0"/>
<feBlend mode="normal" in2="BackgroundImageFix" result="effect1_dropShadow_213_363"/>
<feBlend mode="normal" in="SourceGraphic" in2="effect1_dropShadow_213_363" result="shape"/>
</filter>
</defs>
</svg>
