<svg width="34" height="32" viewBox="0 0 34 32" fill="none" xmlns="http://www.w3.org/2000/svg">
<g id="Frame" clip-path="url(#clip0_213_381)">
<path id="Vector" d="M21.1328 12.519C21.1328 12.519 18.921 18.5872 17.87 19.6466C16.819 20.706 15.0845 20.7355 13.9961 19.7124C12.9077 18.6894 12.8774 17.0012 13.9285 15.9418C14.9795 14.8824 21.1328 12.519 21.1328 12.519Z" fill="#5856D6" stroke="#5856D6" stroke-width="1.5" stroke-linejoin="round"/>
<path id="Vector_2" d="M26.9903 25.8995C29.5932 23.366 31.2031 19.866 31.2031 16C31.2031 8.268 24.7635 2 16.8198 2C8.87612 2 2.43652 8.268 2.43652 16C2.43652 19.866 4.04643 23.366 6.64929 25.8995" stroke="#5856D6" stroke-width="3" stroke-linecap="round" stroke-linejoin="round"/>
<path id="Vector_3" d="M16.8198 2.6665V5.33317" stroke="#5856D6" stroke-width="3" stroke-linecap="round" stroke-linejoin="round"/>
<path id="Vector_4" d="M26.9877 7.42822L24.8586 9.10636" stroke="#5856D6" stroke-width="3" stroke-linecap="round" stroke-linejoin="round"/>
<path id="Vector_5" d="M29.506 18.155L26.8366 17.5552" stroke="#5856D6" stroke-width="3" stroke-linecap="round" stroke-linejoin="round"/>
<path id="Vector_6" d="M4.1333 18.155L6.80275 17.5552" stroke="#5856D6" stroke-width="3" stroke-linecap="round" stroke-linejoin="round"/>
<path id="Vector_7" d="M6.65192 7.42822L8.78103 9.10642" stroke="#5856D6" stroke-width="3" stroke-linecap="round" stroke-linejoin="round"/>
</g>
<defs>
<clipPath id="clip0_213_381">
<rect width="32.876" height="32" fill="white" transform="translate(0.381775)"/>
</clipPath>
</defs>
</svg>
