<svg width="32" height="32" viewBox="0 0 32 32" fill="none" xmlns="http://www.w3.org/2000/svg">
<g id="Frame">
<path id="Vector" d="M21.9307 10.7386C21.6063 10.0748 20.7689 9.85306 20.1585 10.269C19.548 10.685 19.4481 11.5455 19.9471 12.0902C21.4858 14.4697 21.4858 17.5306 19.9471 19.9101C19.4481 20.4549 19.548 21.3154 20.1585 21.7314C20.7689 22.1474 21.6063 21.9255 21.9307 21.2619M27.7695 26.8364C32.8265 20.4969 32.8265 11.5033 27.7695 5.16395C27.3777 4.58489 26.5764 4.46071 26.0276 4.89403C25.4788 5.32724 25.4136 6.13547 25.8858 6.65109C30.1728 12.1466 30.1728 19.8537 25.8858 25.3493C25.4136 25.8649 25.4788 26.6732 26.0276 27.1063C26.5764 27.5395 27.3777 27.4154 27.7695 26.8364ZM7.48912 10.1275C9.93519 8.18643 12.3811 6.24508 14.8272 4.30391C15.5612 3.72129 16.6434 4.24414 16.6434 5.18122V26.8191C16.6434 27.7563 15.5612 28.2789 14.8272 27.6964L7.48912 21.8727H1.60007C0.981497 21.8727 0.480103 21.3712 0.480103 20.7527V11.2476C0.480103 10.6291 0.981497 10.1276 1.60007 10.1276L7.48912 10.1275ZM2.88011 12.5276V19.4727H8.3258L14.2435 24.1691V7.83111L8.3258 12.5276H2.88011V12.5276ZM21.7356 21.5482C24.0896 18.224 24.0896 13.7763 21.7356 10.4521V21.5482Z" fill="#FF9500"/>
</g>
</svg>
